<svg xmlns="http://www.w3.org/2000/svg" width="16" height="16" viewBox="0 0 107.23 129.36"><path fill="black" d="M103.75,1.53V44.87h-.38L78.85,8a6,6,0,0,0-5.32-2.86H54c-1.4,0-2.28.2-2.66.62s-.57,1.4-.57,3V62.61H63.64a7.06,7.06,0,0,0,5-2.51l17.1-18.62h.38V87.14h-.38L68.59,68.52a7.07,7.07,0,0,0-5.14-2.33H50.72v54.09c0,1.56.19,2.54.57,3s1.26.63,2.66.63H75.81c2.78,0,4.69-.83,5.7-2.51l23.57-38h.38v44.07H1.87v-.36L14.6,115.81a5.62,5.62,0,0,0,1.71-4.3v-94a5.58,5.58,0,0,0-1.71-4.29L1.87,1.89V1.53Z"></path></svg>